<svg aria-hidden="true" style="position: absolute; width: 0; height: 0; overflow: hidden;" version="1.1" xmlns="http://www.w3.org/2000/svg" xmlns:xlink="http://www.w3.org/1999/xlink">
<defs>
<symbol id="icon-dandruff" viewBox="0 0 32 32">
<path d="M28.947 27.053l-4.947-4.907c1.92-2.394 2.85-5.433 2.598-8.492s-1.666-5.905-3.951-7.953-5.269-3.143-8.337-3.059c-3.068 0.084-5.987 1.34-8.157 3.51s-3.426 5.089-3.51 8.157c-0.084 3.068 1.011 6.051 3.059 8.337s4.894 3.7 7.953 3.951c3.059 0.252 6.097-0.678 8.492-2.598l4.907 4.907c0.124 0.125 0.271 0.224 0.434 0.292s0.337 0.103 0.513 0.103 0.35-0.035 0.513-0.103c0.162-0.068 0.31-0.167 0.434-0.292 0.24-0.249 0.375-0.581 0.375-0.927s-0.134-0.678-0.375-0.927v0zM14.667 24c-1.846 0-3.65-0.547-5.185-1.573s-2.731-2.483-3.438-4.189c-0.706-1.705-0.891-3.582-0.531-5.393s1.249-3.474 2.554-4.779 2.968-2.194 4.779-2.554c1.81-0.36 3.687-0.175 5.393 0.531s3.163 1.903 4.189 3.438c1.026 1.535 1.573 3.339 1.573 5.185 0 2.475-0.983 4.849-2.734 6.6s-4.124 2.734-6.6 2.734v0z"></path>
</symbol>
<symbol id="icon-garbage" viewBox="0 0 32 32">
<path d="M28 21.333h-18.667c-0.354 0-0.693-0.141-0.943-0.391s-0.391-0.589-0.391-0.943 0.14-0.693 0.391-0.943c0.25-0.25 0.589-0.391 0.943-0.391h13.92c0.892 0 1.758-0.298 2.46-0.846s1.203-1.316 1.42-2.18l2.2-8.653c0.050-0.197 0.054-0.402 0.013-0.601s-0.128-0.385-0.253-0.546c-0.13-0.164-0.296-0.296-0.486-0.384s-0.398-0.13-0.607-0.123h-18.987c-0.275-0.778-0.784-1.452-1.457-1.929s-1.478-0.735-2.303-0.737h-1.253c-0.354 0-0.693 0.14-0.943 0.391s-0.391 0.589-0.391 0.943c0 0.354 0.14 0.693 0.391 0.943s0.589 0.391 0.943 0.391h1.253c0.305-0.009 0.603 0.087 0.846 0.271s0.415 0.446 0.488 0.742l0.080 0.64 2.307 9.013c-1.061 0.048-2.059 0.515-2.776 1.299s-1.092 1.82-1.044 2.881 0.515 2.059 1.299 2.776c0.784 0.716 1.82 1.092 2.881 1.044h0.24c-0.219 0.604-0.29 1.252-0.205 1.89s0.321 1.245 0.69 1.771c0.369 0.526 0.859 0.956 1.429 1.253s1.203 0.452 1.846 0.452c0.643 0 1.276-0.155 1.846-0.452s1.060-0.726 1.429-1.253c0.369-0.526 0.606-1.134 0.69-1.771s0.014-1.285-0.205-1.89h3.147c-0.219 0.604-0.29 1.252-0.205 1.89s0.321 1.245 0.69 1.771c0.369 0.526 0.859 0.956 1.429 1.253s1.203 0.452 1.846 0.452c0.643 0 1.276-0.155 1.846-0.452s1.060-0.726 1.429-1.253c0.369-0.526 0.605-1.134 0.69-1.771s0.014-1.285-0.205-1.89h0.24c0.354 0 0.693-0.14 0.943-0.391s0.391-0.589 0.391-0.943c0-0.354-0.141-0.693-0.391-0.943s-0.589-0.391-0.943-0.391zM26.293 8l-1.747 6.987c-0.073 0.296-0.245 0.558-0.488 0.742s-0.541 0.28-0.846 0.271h-11.507l-2-8h16.587zM13.333 26.667c-0.264 0-0.521-0.078-0.741-0.225s-0.39-0.355-0.491-0.598-0.127-0.512-0.076-0.77c0.051-0.259 0.178-0.496 0.365-0.683s0.424-0.313 0.683-0.365c0.259-0.051 0.527-0.025 0.77 0.076s0.452 0.272 0.598 0.491c0.147 0.219 0.225 0.477 0.225 0.741 0 0.354-0.141 0.693-0.391 0.943s-0.589 0.391-0.943 0.391zM24 26.667c-0.264 0-0.521-0.078-0.741-0.225s-0.39-0.355-0.491-0.598c-0.101-0.244-0.127-0.512-0.076-0.77s0.178-0.496 0.365-0.683c0.186-0.186 0.424-0.313 0.683-0.365s0.527-0.025 0.77 0.076c0.244 0.101 0.452 0.272 0.598 0.491s0.225 0.477 0.225 0.741c0 0.354-0.141 0.693-0.391 0.943s-0.589 0.391-0.943 0.391z"></path>
</symbol>
<symbol id="icon-instagram" viewBox="0 0 32 32">
<path d="M23.12 7.28c-0.316 0-0.626 0.094-0.889 0.27s-0.468 0.426-0.589 0.718c-0.121 0.292-0.153 0.614-0.091 0.924s0.214 0.595 0.438 0.819c0.224 0.224 0.509 0.376 0.819 0.438s0.632 0.030 0.924-0.091c0.292-0.121 0.542-0.326 0.718-0.589s0.27-0.572 0.27-0.889c0-0.424-0.169-0.831-0.469-1.131s-0.707-0.469-1.131-0.469zM29.253 10.507c-0.026-1.106-0.233-2.201-0.613-3.24-0.339-0.889-0.867-1.694-1.547-2.36-0.66-0.683-1.467-1.208-2.36-1.533-1.036-0.392-2.132-0.604-3.24-0.627-1.413-0.080-1.867-0.080-5.493-0.080s-4.080 0-5.493 0.080c-1.108 0.023-2.204 0.235-3.24 0.627-0.891 0.329-1.697 0.853-2.36 1.533-0.683 0.66-1.208 1.467-1.533 2.36-0.392 1.036-0.604 2.132-0.627 3.24-0.080 1.413-0.080 1.867-0.080 5.493s0 4.080 0.080 5.493c0.023 1.108 0.235 2.204 0.627 3.24 0.326 0.893 0.85 1.7 1.533 2.36 0.663 0.681 1.469 1.205 2.36 1.533 1.036 0.392 2.132 0.604 3.24 0.627 1.413 0.080 1.867 0.080 5.493 0.080s4.080 0 5.493-0.080c1.108-0.023 2.204-0.235 3.24-0.627 0.893-0.326 1.7-0.85 2.36-1.533 0.683-0.663 1.211-1.469 1.547-2.36 0.38-1.039 0.587-2.134 0.613-3.24 0-1.413 0.080-1.867 0.080-5.493s0-4.080-0.080-5.493zM26.853 21.333c-0.010 0.846-0.163 1.685-0.453 2.48-0.213 0.58-0.555 1.105-1 1.533-0.433 0.441-0.956 0.782-1.533 1-0.795 0.29-1.634 0.444-2.48 0.453-1.333 0.067-1.827 0.080-5.333 0.080s-4 0-5.333-0.080c-0.879 0.016-1.754-0.119-2.587-0.4-0.552-0.229-1.052-0.57-1.467-1-0.443-0.428-0.78-0.953-0.987-1.533-0.326-0.806-0.506-1.664-0.533-2.533 0-1.333-0.080-1.827-0.080-5.333s0-4 0.080-5.333c0.006-0.865 0.164-1.723 0.467-2.533 0.235-0.563 0.595-1.064 1.053-1.467 0.405-0.458 0.906-0.823 1.467-1.067 0.813-0.293 1.669-0.447 2.533-0.453 1.333 0 1.827-0.080 5.333-0.080s4 0 5.333 0.080c0.846 0.010 1.685 0.163 2.48 0.453 0.606 0.225 1.15 0.59 1.587 1.067 0.437 0.41 0.778 0.91 1 1.467 0.296 0.812 0.45 1.669 0.453 2.533 0.067 1.333 0.080 1.827 0.080 5.333s-0.013 4-0.080 5.333zM16 9.16c-1.352 0.003-2.673 0.406-3.796 1.159s-1.998 1.822-2.513 3.072c-0.516 1.25-0.649 2.625-0.384 3.951s0.918 2.543 1.875 3.499c0.957 0.955 2.176 1.605 3.502 1.868s2.701 0.127 3.95-0.391c1.249-0.518 2.317-1.395 3.067-2.519s1.152-2.446 1.152-3.799c0.002-0.9-0.174-1.791-0.518-2.623s-0.849-1.587-1.486-2.223-1.393-1.139-2.225-1.482c-0.832-0.342-1.724-0.517-2.624-0.513zM16 20.44c-0.878 0-1.737-0.26-2.467-0.748s-1.299-1.181-1.635-1.993c-0.336-0.811-0.424-1.704-0.253-2.565s0.594-1.652 1.215-2.273c0.621-0.621 1.412-1.044 2.273-1.215s1.754-0.083 2.565 0.253c0.811 0.336 1.505 0.905 1.993 1.635s0.748 1.589 0.748 2.467c0 0.583-0.115 1.16-0.338 1.699s-0.55 1.028-0.962 1.441c-0.412 0.412-0.902 0.739-1.441 0.962s-1.116 0.338-1.699 0.338z"></path>
</symbol>
<symbol id="icon-red" viewBox="0 0 25 32">
<path fill="#de1616" style="fill: var(--color1, #de1616)" d="M24.615 16c0 6.797-5.51 12.308-12.308 12.308s-12.308-5.51-12.308-12.308c0-6.797 5.51-12.308 12.308-12.308s12.308 5.51 12.308 12.308z"></path>
<path fill="#fff" style="fill: var(--color2, #fff)" d="M17.083 16.266c0 1.241-0.135 2.32-0.404 3.239-0.263 0.912-0.63 1.667-1.103 2.265-0.466 0.597-1.021 1.044-1.664 1.339-0.637 0.289-1.326 0.433-2.068 0.433s-1.431-0.144-2.068-0.433c-0.63-0.295-1.178-0.742-1.644-1.339s-0.83-1.352-1.093-2.265c-0.263-0.919-0.394-1.999-0.394-3.239 0-1.247 0.131-2.327 0.394-3.239s0.627-1.667 1.093-2.265 1.014-1.040 1.644-1.329c0.637-0.295 1.326-0.443 2.068-0.443s1.431 0.148 2.068 0.443c0.643 0.289 1.198 0.732 1.664 1.329 0.473 0.597 0.84 1.352 1.103 2.265 0.269 0.912 0.404 1.992 0.404 3.239zM14.572 16.266c0-1.031-0.075-1.884-0.226-2.56s-0.354-1.214-0.61-1.615c-0.249-0.4-0.538-0.679-0.866-0.837-0.328-0.164-0.67-0.246-1.024-0.246-0.348 0-0.686 0.082-1.014 0.246-0.322 0.158-0.607 0.437-0.857 0.837s-0.45 0.939-0.601 1.615c-0.144 0.676-0.217 1.529-0.217 2.56s0.072 1.884 0.217 2.56c0.151 0.676 0.351 1.214 0.601 1.615s0.535 0.683 0.857 0.847c0.328 0.158 0.666 0.236 1.014 0.236 0.354 0 0.696-0.079 1.024-0.236 0.328-0.164 0.617-0.446 0.866-0.847 0.256-0.4 0.459-0.939 0.61-1.615s0.226-1.529 0.226-2.56z"></path>
</symbol>
<symbol id="icon-user" viewBox="0 0 32 32">
<path d="M20.947 16.947c1.307-1.028 2.261-2.439 2.73-4.035s0.428-3.298-0.117-4.87c-0.544-1.572-1.565-2.935-2.92-3.899s-2.977-1.483-4.64-1.483c-1.663 0-3.285 0.518-4.64 1.483s-2.375 2.328-2.92 3.899c-0.544 1.572-0.585 3.274-0.117 4.87s1.422 3.006 2.73 4.035c-2.24 0.897-4.194 2.386-5.655 4.307s-2.372 4.202-2.639 6.6c-0.019 0.175-0.004 0.352 0.045 0.521s0.131 0.327 0.241 0.464c0.223 0.278 0.546 0.455 0.9 0.494s0.708-0.064 0.986-0.287c0.278-0.223 0.455-0.546 0.494-0.9 0.293-2.606 1.536-5.014 3.491-6.762s4.486-2.714 7.109-2.714c2.623 0 5.154 0.966 7.109 2.714s3.198 4.155 3.491 6.762c0.036 0.328 0.193 0.63 0.439 0.849s0.565 0.339 0.895 0.337h0.147c0.349-0.040 0.669-0.217 0.889-0.492s0.322-0.625 0.285-0.975c-0.267-2.405-1.184-4.692-2.652-6.616s-3.432-3.412-5.681-4.304zM16 16c-1.055 0-2.086-0.313-2.963-0.899s-1.561-1.419-1.964-2.394-0.509-2.047-0.303-3.081c0.206-1.035 0.714-1.985 1.46-2.731s1.696-1.254 2.731-1.46c1.034-0.206 2.107-0.1 3.081 0.303s1.808 1.087 2.394 1.964 0.899 1.908 0.899 2.963c0 1.415-0.562 2.771-1.562 3.771s-2.357 1.562-3.771 1.562z"></path>
</symbol>
</defs>
</svg>
