<svg aria-hidden="true" style="position: absolute; width: 0; height: 0; overflow: hidden;" version="1.1" xmlns="http://www.w3.org/2000/svg" xmlns:xlink="http://www.w3.org/1999/xlink">
<defs>
<symbol id="icon-eye-icon" viewBox="0 0 32 32">
<path d="M31.738 9.275c-0.91-4.575-4.162-7.525-8.351-7.525-2.343 0-4.879 0.965-7.359 2.784-2.508-1.874-5.044-2.839-7.414-2.839-4.189 0-7.469 2.977-8.351 7.607-1.323 6.863 2.922 15.986 15.352 20.948 0.138 0.055 0.276 0.083 0.413 0.083s0.276-0.028 0.413-0.083c12.403-5.071 16.62-14.167 15.297-20.975zM16.028 27.989c-10.915-4.52-14.691-12.403-13.561-18.274 0.662-3.5 3.087-5.788 6.146-5.788 2.067 0 4.382 0.992 6.698 2.894 0.413 0.331 0.992 0.331 1.406 0 2.315-1.847 4.603-2.811 6.67-2.811 3.059 0 5.457 2.233 6.146 5.705 1.13 5.816-2.619 13.671-13.506 18.274z"></path>
</symbol>
<symbol id="icon-like-icon" viewBox="0 0 53 32">
<path d="M52.417 14.841c-0.108-0.136-2.692-3.378-7.122-6.633-5.92-4.349-12.362-6.649-18.628-6.649s-12.708 2.299-18.628 6.649c-4.43 3.255-7.014 6.496-7.122 6.633l-0.916 1.158 0.916 1.159c0.108 0.136 2.692 3.378 7.122 6.633 5.92 4.349 12.362 6.648 18.628 6.648s12.708-2.299 18.628-6.648c4.43-3.255 7.014-6.497 7.122-6.633l0.916-1.159-0.916-1.158zM26.666 26.116c-5.578 0-10.116-4.538-10.116-10.116 0-0.874 0.111-1.722 0.321-2.532l-2.31-0.389c-0.226 0.937-0.346 1.915-0.346 2.92 0 3.603 1.539 6.853 3.994 9.129-3.16-1.167-5.846-2.805-7.874-4.286-2.512-1.835-4.395-3.691-5.468-4.843 1.074-1.153 2.956-3.008 5.468-4.843 2.028-1.481 4.714-3.119 7.874-4.286l1.549 1.746c1.809-1.694 4.24-2.733 6.908-2.733 5.578 0 10.116 4.538 10.116 10.116s-4.538 10.116-10.116 10.116zM42.998 20.843c-2.028 1.481-4.714 3.119-7.874 4.286 2.454-2.276 3.993-5.526 3.993-9.129s-1.539-6.853-3.993-9.129c3.159 1.167 5.846 2.805 7.874 4.286 2.512 1.835 4.395 3.691 5.468 4.843-1.074 1.153-2.956 3.008-5.468 4.843z"></path>
<path d="M20.229 14.033c-0.19 0.622-0.293 1.282-0.293 1.966 0 3.717 3.013 6.73 6.73 6.73s6.73-3.013 6.73-6.73-3.013-6.73-6.73-6.73c-1.81 0-3.453 0.716-4.662 1.879l3.32 3.742-5.095-0.857z"></path>
</symbol>
</defs>
</svg>
